<svg width="200" height="200" viewBox="0 0 200 200" fill="none" xmlns="http://www.w3.org/2000/svg">
<rect width="200" height="200" fill="#3f3f3f"/>
<path d="M131.716 39.7273H146.159V118.699C146.159 126.852 144.237 134.132 140.393 140.538C136.589 146.906 131.211 151.934 124.261 155.622C117.312 159.272 109.158 161.097 99.8011 161.097C90.4441 161.097 82.2907 159.272 75.3409 155.622C68.3911 151.934 62.9943 146.906 59.1506 140.538C55.3456 134.132 53.4432 126.852 53.4432 118.699V39.7273H67.8864V117.534C67.8864 123.358 69.1676 128.541 71.7301 133.084C74.2926 137.588 77.9422 141.14 82.679 143.741C87.4545 146.304 93.1619 147.585 99.8011 147.585C106.44 147.585 112.148 146.304 116.923 143.741C121.699 141.14 125.348 137.588 127.872 133.084C130.435 128.541 131.716 123.358 131.716 117.534V39.7273Z" fill="white"/>
</svg>
